# xmcd
#
# Track frame offsets: 
#        150
#        27910
#        49670
#        73129
#        92686
#        116683
#        135523
#        157663
#        174522
#        199138
#        221876
#
# Disc length: 3289 seconds
#
# Revision: 0
# Processed by: cddbd v1.5.2PL0 Copyright (c) Steve Scherf et al.
# Submitted via: ExactAudioCopyFreeDBPlugin 1.0
#
DISCID=970cd70b
DTITLE=Marty O'Reilly and The Old Soul Orchestra - Stereoscope
DYEAR=2017
DGENRE=Blues
TTITLE0=Firmament
TTITLE1=Southern Road
TTITLE2=Ghost
TTITLE3=Fish In A Rut
TTITLE4=Come And Go Heartbeat
TTITLE5=Hard Time Killing Floor
TTITLE6=Stereoscope
TTITLE7=Off And On Again
TTITLE8=Let The Wind In
TTITLE9=Battlefields
TTITLE10=Spacehorse
EXTD=
EXTT0=
EXTT1=
EXTT2=
EXTT3=
EXTT4=
EXTT5=
EXTT6=
EXTT7=
EXTT8=
EXTT9=
EXTT10=
PLAYORDER=
